<?xml version="1.0" encoding="utf-8"?>
<!-- Generator: Adobe Illustrator 14.0.0, SVG Export Plug-In . SVG Version: 6.00 Build 43363)  -->
<!DOCTYPE svg PUBLIC "-//W3C//DTD SVG 1.1//EN" "http://www.w3.org/Graphics/SVG/1.1/DTD/svg11.dtd">
<svg version="1.1" id="Ebene_1" xmlns="http://www.w3.org/2000/svg" xmlns:xlink="http://www.w3.org/1999/xlink" x="0px" y="0px"
	 width="256px" height="256px" viewBox="0 0 256 256" enable-background="new 0 0 256 256" xml:space="preserve">
<g>
	<linearGradient id="SVGID_1_" gradientUnits="userSpaceOnUse" x1="128.0005" y1="256" x2="128.0005" y2="4.882812e-04">
		<stop  offset="0" style="stop-color:#D45707"/>
		<stop  offset="1" style="stop-color:#F28F00"/>
	</linearGradient>
	<path fill-rule="evenodd" clip-rule="evenodd" fill="url(#SVGID_1_)" d="M20,0h216c11.047,0,20,8.954,20,20v216
		c0,11.046-8.953,20-20,20H20c-11.045,0-20-8.954-20-20V20C0,8.954,8.955,0,20,0z"/>
	<g>
		<g>
			<g>
				<path fill="#FFFFFF" d="M119.51,190.666c-0.486-2.729-0.721-5.416-0.721-8.073c0-2.573,0.234-5.26,0.721-8.066
					c1.367-0.247,2.836-0.422,4.396-0.542c1.559-0.119,2.992-0.186,4.277-0.186c1.361,0,2.854,0.066,4.457,0.186
					c1.607,0.12,3.094,0.295,4.467,0.542c0.24,1.354,0.391,2.711,0.48,4.03c0.078,1.332,0.109,2.675,0.109,4.036
					c0,1.289-0.031,2.609-0.109,3.978c-0.09,1.367-0.24,2.734-0.48,4.096c-1.373,0.247-2.842,0.403-4.395,0.487
					c-1.578,0.078-3.043,0.119-4.41,0.119c-1.271,0-2.734-0.041-4.33-0.119C122.359,191.069,120.877,190.913,119.51,190.666z"/>
			</g>
		</g>
		<g>
			<g>
				<path fill="#FFFFFF" d="M119.51,164.892c-0.486-2.735-0.721-5.423-0.721-8.074c0-2.573,0.234-5.267,0.721-8.073
					c1.367-0.246,2.836-0.42,4.396-0.54c1.559-0.12,2.992-0.181,4.277-0.181c1.361,0,2.854,0.061,4.457,0.181
					c1.607,0.12,3.094,0.294,4.467,0.54c0.24,1.367,0.391,2.71,0.48,4.036c0.078,1.325,0.109,2.669,0.109,4.037
					c0,1.284-0.031,2.604-0.109,3.977c-0.09,1.362-0.24,2.73-0.48,4.098c-1.373,0.239-2.842,0.396-4.395,0.479
					c-1.578,0.084-3.043,0.126-4.41,0.126c-1.271,0-2.734-0.042-4.33-0.126C122.359,165.288,120.877,165.131,119.51,164.892z"/>
			</g>
		</g>
		<g>
			<g>
				<path fill="#FFFFFF" d="M119.51,139.109c-0.486-2.729-0.721-5.422-0.721-8.073c0-2.567,0.234-5.255,0.721-8.075
					c1.367-0.239,2.836-0.419,4.396-0.539c1.559-0.119,2.992-0.181,4.277-0.181c1.361,0,2.854,0.062,4.457,0.181
					c1.607,0.12,3.094,0.3,4.467,0.539c0.24,1.368,0.391,2.712,0.48,4.045c0.078,1.318,0.109,2.663,0.109,4.03
					c0,1.283-0.031,2.604-0.109,3.971c-0.09,1.374-0.24,2.735-0.48,4.103c-1.373,0.241-2.842,0.402-4.395,0.48
					c-1.578,0.084-3.043,0.12-4.41,0.12c-1.271,0-2.734-0.036-4.33-0.12C122.359,139.512,120.877,139.351,119.51,139.109z"/>
			</g>
		</g>
		<g>
			<g>
				<path fill="#FFFFFF" d="M119.51,113.328c-0.486-2.724-0.721-5.423-0.721-8.068c0-2.573,0.234-5.261,0.721-8.067
					c1.367-0.252,2.836-0.426,4.396-0.552c1.559-0.115,2.992-0.18,4.277-0.18c1.361,0,2.854,0.064,4.457,0.18
					c1.607,0.126,3.094,0.3,4.467,0.552c0.24,1.355,0.391,2.704,0.48,4.024c0.078,1.332,0.109,2.676,0.109,4.043
					c0,1.29-0.031,2.61-0.109,3.978c-0.09,1.367-0.24,2.723-0.48,4.091c-1.373,0.239-2.842,0.408-4.395,0.485
					c-1.578,0.078-3.043,0.127-4.41,0.127c-1.271,0-2.734-0.049-4.33-0.127C122.359,113.736,120.877,113.567,119.51,113.328z"/>
			</g>
		</g>
		<g>
			<g>
				<path fill="#FFFFFF" d="M143.49,164.892c-0.479-2.735-0.725-5.423-0.725-8.074c0-2.573,0.246-5.267,0.725-8.073
					c1.369-0.246,2.826-0.42,4.398-0.54c1.559-0.12,2.992-0.181,4.275-0.181c1.363,0,2.855,0.061,4.463,0.181
					c1.609,0.12,3.09,0.294,4.457,0.54c0.248,1.367,0.396,2.71,0.475,4.036c0.09,1.325,0.125,2.669,0.125,4.037
					c0,1.284-0.035,2.604-0.125,3.977c-0.078,1.362-0.227,2.73-0.475,4.098c-1.367,0.239-2.836,0.396-4.389,0.479
					c-1.572,0.084-3.043,0.126-4.41,0.126c-1.283,0-2.736-0.042-4.336-0.126C146.34,165.288,144.859,165.131,143.49,164.892z"/>
			</g>
		</g>
		<g>
			<g>
				<path fill="#FFFFFF" d="M143.49,139.109c-0.479-2.729-0.725-5.422-0.725-8.073c0-2.567,0.246-5.255,0.725-8.075
					c1.369-0.239,2.826-0.419,4.398-0.539c1.559-0.119,2.992-0.181,4.275-0.181c1.363,0,2.855,0.062,4.463,0.181
					c1.609,0.12,3.09,0.3,4.457,0.539c0.248,1.368,0.396,2.712,0.475,4.045c0.09,1.318,0.125,2.663,0.125,4.03
					c0,1.283-0.035,2.604-0.125,3.971c-0.078,1.374-0.227,2.735-0.475,4.103c-1.367,0.241-2.836,0.402-4.389,0.48
					c-1.572,0.084-3.043,0.12-4.41,0.12c-1.283,0-2.736-0.036-4.336-0.12C146.34,139.512,144.859,139.351,143.49,139.109z"/>
			</g>
		</g>
		<g>
			<g>
				<path fill="#FFFFFF" d="M143.49,113.328c-0.479-2.724-0.725-5.423-0.725-8.068c0-2.573,0.246-5.261,0.725-8.067
					c1.369-0.252,2.826-0.426,4.398-0.552c1.559-0.115,2.992-0.18,4.275-0.18c1.363,0,2.855,0.064,4.463,0.18
					c1.609,0.126,3.09,0.3,4.457,0.552c0.248,1.355,0.396,2.704,0.475,4.024c0.09,1.332,0.125,2.676,0.125,4.043
					c0,1.29-0.035,2.61-0.125,3.978c-0.078,1.367-0.227,2.723-0.475,4.091c-1.367,0.239-2.836,0.408-4.389,0.485
					c-1.572,0.078-3.043,0.127-4.41,0.127c-1.283,0-2.736-0.049-4.336-0.127C146.34,113.736,144.859,113.567,143.49,113.328z"/>
			</g>
		</g>
		<g>
			<g>
				<path fill="#FFFFFF" d="M95.521,164.892c-0.475-2.735-0.715-5.423-0.715-8.074c0-2.573,0.24-5.267,0.715-8.073
					c1.375-0.246,2.838-0.42,4.402-0.54c1.566-0.12,2.992-0.181,4.277-0.181c1.367,0,2.855,0.061,4.463,0.181s3.09,0.294,4.463,0.54
					c0.229,1.367,0.395,2.71,0.473,4.036c0.08,1.325,0.121,2.669,0.121,4.037c0,1.284-0.041,2.604-0.121,3.977
					c-0.078,1.362-0.244,2.73-0.473,4.098c-1.373,0.239-2.85,0.396-4.396,0.479c-1.566,0.084-3.035,0.126-4.402,0.126
					c-1.291,0-2.736-0.042-4.338-0.126C98.377,165.288,96.896,165.131,95.521,164.892z"/>
			</g>
		</g>
		<g>
			<g>
				<path fill="#FFFFFF" d="M95.521,139.109c-0.475-2.729-0.715-5.422-0.715-8.073c0-2.567,0.24-5.255,0.715-8.075
					c1.375-0.239,2.838-0.419,4.402-0.539c1.566-0.119,2.992-0.181,4.277-0.181c1.367,0,2.855,0.062,4.463,0.181
					c1.607,0.12,3.09,0.3,4.463,0.539c0.229,1.368,0.395,2.712,0.473,4.045c0.08,1.318,0.121,2.663,0.121,4.03
					c0,1.283-0.041,2.604-0.121,3.971c-0.078,1.374-0.244,2.735-0.473,4.103c-1.373,0.241-2.85,0.402-4.396,0.48
					c-1.566,0.084-3.035,0.12-4.402,0.12c-1.291,0-2.736-0.036-4.338-0.12C98.377,139.512,96.896,139.351,95.521,139.109z"/>
			</g>
		</g>
		<g>
			<g>
				<path fill="#FFFFFF" d="M143.49,190.666c-0.479-2.729-0.725-5.421-0.725-8.073c0-2.567,0.246-5.254,0.725-8.074
					c1.369-0.239,2.826-0.42,4.398-0.54c1.559-0.119,2.992-0.18,4.275-0.18c1.363,0,2.855,0.061,4.463,0.18
					c1.609,0.12,3.09,0.301,4.457,0.54c0.248,1.368,0.396,2.713,0.475,4.044c0.09,1.319,0.125,2.663,0.125,4.03
					c0,1.284-0.035,2.604-0.125,3.973c-0.078,1.372-0.227,2.733-0.475,4.101c-1.367,0.241-2.836,0.403-4.389,0.48
					c-1.572,0.085-3.043,0.12-4.41,0.12c-1.283,0-2.736-0.035-4.336-0.12C146.34,191.069,144.859,190.907,143.49,190.666z"/>
			</g>
		</g>
		<g>
			<g>
				<path fill="#FFFFFF" d="M95.521,190.666c-0.475-2.729-0.715-5.421-0.715-8.073c0-2.567,0.24-5.254,0.715-8.074
					c1.375-0.239,2.838-0.42,4.402-0.54c1.566-0.119,2.992-0.18,4.277-0.18c1.367,0,2.855,0.061,4.463,0.18
					c1.607,0.12,3.09,0.301,4.463,0.54c0.229,1.368,0.395,2.713,0.473,4.044c0.08,1.319,0.121,2.663,0.121,4.03
					c0,1.284-0.041,2.604-0.121,3.973c-0.078,1.372-0.244,2.733-0.473,4.101c-1.373,0.241-2.85,0.403-4.396,0.48
					c-1.566,0.085-3.035,0.12-4.402,0.12c-1.291,0-2.736-0.035-4.338-0.12C98.377,191.069,96.896,190.907,95.521,190.666z"/>
			</g>
		</g>
		<g>
			<g>
				<path fill="#FFFFFF" d="M119.51,216.161c-0.486-2.735-0.721-5.423-0.721-8.073c0-2.58,0.234-5.268,0.721-8.074
					c1.367-0.24,2.836-0.421,4.396-0.54c1.559-0.12,2.992-0.181,4.277-0.181c1.361,0,2.854,0.061,4.457,0.181
					c1.607,0.119,3.094,0.3,4.467,0.54c0.24,1.354,0.391,2.711,0.48,4.029c0.078,1.332,0.109,2.676,0.109,4.045
					c0,1.282-0.031,2.603-0.109,3.97c-0.09,1.368-0.24,2.736-0.48,4.104c-1.373,0.239-2.842,0.396-4.395,0.479
					c-1.578,0.084-3.043,0.12-4.41,0.12c-1.271,0-2.734-0.036-4.33-0.12C122.359,216.557,120.877,216.4,119.51,216.161z"/>
			</g>
		</g>
		<g>
			<g>
				<path fill="#FFFFFF" d="M143.49,216.161c-0.479-2.723-0.725-5.423-0.725-8.073c0-2.568,0.246-5.255,0.725-8.074
					c1.369-0.24,2.826-0.421,4.398-0.54c1.559-0.12,2.992-0.181,4.275-0.181c1.363,0,2.855,0.061,4.463,0.181
					c1.609,0.119,3.09,0.3,4.457,0.54c0.248,1.368,0.396,2.711,0.475,4.043c0.09,1.318,0.125,2.662,0.125,4.031
					c0,1.282-0.035,2.603-0.125,3.97c-0.078,1.381-0.227,2.736-0.475,4.104c-1.367,0.239-2.836,0.407-4.389,0.479
					c-1.572,0.084-3.043,0.12-4.41,0.12c-1.283,0-2.736-0.036-4.336-0.12C146.34,216.568,144.859,216.4,143.49,216.161z"/>
			</g>
		</g>
		<g>
			<g>
				<path fill="#FFFFFF" d="M95.521,216.161c-0.475-2.723-0.715-5.423-0.715-8.073c0-2.568,0.24-5.255,0.715-8.074
					c1.375-0.24,2.838-0.421,4.402-0.54c1.566-0.12,2.992-0.181,4.277-0.181c1.367,0,2.855,0.061,4.463,0.181
					c1.607,0.119,3.09,0.3,4.463,0.54c0.229,1.368,0.395,2.711,0.473,4.043c0.08,1.318,0.121,2.662,0.121,4.031
					c0,1.282-0.041,2.603-0.121,3.97c-0.078,1.381-0.244,2.736-0.473,4.104c-1.373,0.239-2.85,0.407-4.396,0.479
					c-1.566,0.084-3.035,0.12-4.402,0.12c-1.291,0-2.736-0.036-4.338-0.12C98.377,216.568,96.896,216.4,95.521,216.161z"/>
			</g>
		</g>
		<g>
			<g>
				<path fill="#FFFFFF" d="M95.521,113.328c-0.475-2.724-0.715-5.423-0.715-8.068c0-2.573,0.24-5.261,0.715-8.067
					c1.375-0.252,2.838-0.426,4.402-0.552c1.566-0.115,2.992-0.18,4.277-0.18c1.367,0,2.855,0.064,4.463,0.18
					c1.607,0.126,3.09,0.3,4.463,0.552c0.229,1.355,0.395,2.704,0.473,4.024c0.08,1.332,0.121,2.676,0.121,4.043
					c0,1.29-0.041,2.61-0.121,3.978c-0.078,1.367-0.244,2.723-0.473,4.091c-1.373,0.239-2.85,0.408-4.396,0.485
					c-1.566,0.078-3.035,0.127-4.402,0.127c-1.291,0-2.736-0.049-4.338-0.127C98.377,113.736,96.896,113.567,95.521,113.328z"/>
			</g>
		</g>
		<g>
			<g>
				<path fill="#FFFFFF" d="M71.328,113.328c-0.486-2.724-0.719-5.423-0.719-8.068c0-2.573,0.232-5.261,0.719-8.067
					c1.367-0.252,2.838-0.426,4.404-0.552c1.559-0.115,2.992-0.18,4.275-0.18c1.369,0,2.85,0.064,4.451,0.18
					c1.607,0.126,3.096,0.3,4.463,0.552c0.254,1.355,0.408,2.704,0.486,4.024c0.078,1.332,0.119,2.676,0.119,4.043
					c0,1.29-0.041,2.61-0.119,3.978s-0.232,2.723-0.486,4.091c-1.367,0.239-2.836,0.408-4.385,0.485
					c-1.578,0.078-3.033,0.127-4.414,0.127c-1.277,0-2.736-0.049-4.332-0.127C74.186,113.736,72.695,113.567,71.328,113.328z"/>
			</g>
		</g>
		<g>
			<g>
				<path fill="#FFFFFF" d="M47.354,113.328c-0.48-2.724-0.732-5.423-0.732-8.068c0-2.573,0.252-5.261,0.732-8.067
					c1.361-0.252,2.832-0.426,4.402-0.552c1.559-0.115,2.98-0.18,4.277-0.18c1.361,0,2.848,0.064,4.451,0.18
					c1.602,0.126,3.09,0.3,4.461,0.552c0.24,1.355,0.402,2.704,0.488,4.024c0.064,1.332,0.113,2.676,0.113,4.043
					c0,1.29-0.049,2.61-0.113,3.978c-0.086,1.367-0.248,2.723-0.488,4.091c-1.371,0.239-2.848,0.408-4.391,0.485
					c-1.57,0.078-3.035,0.127-4.402,0.127c-1.289,0-2.734-0.049-4.344-0.127C50.201,113.736,48.715,113.567,47.354,113.328z"/>
			</g>
		</g>
		<g>
			<g>
				<path fill="#FFFFFF" d="M23.371,113.328c-0.48-2.724-0.732-5.423-0.732-8.068c0-2.573,0.252-5.261,0.732-8.067
					c1.361-0.252,2.83-0.426,4.402-0.552c1.561-0.115,2.982-0.18,4.277-0.18c1.361,0,2.85,0.064,4.451,0.18
					c1.602,0.126,3.09,0.3,4.463,0.552c0.24,1.355,0.402,2.704,0.484,4.024c0.066,1.332,0.115,2.676,0.115,4.043
					c0,1.29-0.049,2.61-0.115,3.978c-0.082,1.367-0.244,2.723-0.484,4.091c-1.373,0.239-2.852,0.408-4.393,0.485
					c-1.57,0.078-3.033,0.127-4.402,0.127c-1.289,0-2.736-0.049-4.342-0.127C26.221,113.736,24.732,113.567,23.371,113.328z"/>
			</g>
		</g>
		<g>
			<g>
				<path fill="#FFFFFF" d="M215.168,113.328c-0.48-2.724-0.732-5.423-0.732-8.068c0-2.573,0.252-5.261,0.732-8.067
					c1.361-0.252,2.832-0.426,4.402-0.552c1.561-0.115,2.982-0.18,4.277-0.18c1.361,0,2.85,0.064,4.451,0.18
					c1.602,0.126,3.09,0.3,4.463,0.552c0.24,1.355,0.402,2.704,0.486,4.024c0.064,1.332,0.113,2.676,0.113,4.043
					c0,1.29-0.049,2.61-0.113,3.978c-0.084,1.367-0.246,2.723-0.486,4.091c-1.373,0.239-2.85,0.408-4.393,0.485
					c-1.57,0.078-3.033,0.127-4.4,0.127c-1.291,0-2.736-0.049-4.344-0.127C218.018,113.736,216.529,113.567,215.168,113.328z"/>
			</g>
		</g>
		<g>
			<g>
				<path fill="#FFFFFF" d="M23.371,87.552c-0.48-2.723-0.732-5.421-0.732-8.073c0-2.567,0.252-5.255,0.732-8.062
					c1.361-0.251,2.83-0.433,4.402-0.552c1.561-0.12,2.982-0.18,4.277-0.18c1.361,0,2.85,0.06,4.451,0.18
					c1.602,0.119,3.09,0.301,4.463,0.552c0.24,1.356,0.402,2.7,0.484,4.02c0.066,1.331,0.115,2.675,0.115,4.043
					c0,1.295-0.049,2.615-0.115,3.982c-0.082,1.368-0.244,2.724-0.484,4.091c-1.373,0.241-2.852,0.408-4.393,0.48
					c-1.57,0.085-3.033,0.132-4.402,0.132c-1.289,0-2.736-0.047-4.342-0.132C26.221,87.96,24.732,87.793,23.371,87.552z"/>
			</g>
		</g>
		<g>
			<g>
				<path fill="#FFFFFF" d="M215.168,87.552c-0.48-2.723-0.732-5.421-0.732-8.073c0-2.567,0.252-5.255,0.732-8.062
					c1.361-0.251,2.832-0.433,4.402-0.552c1.561-0.12,2.982-0.18,4.277-0.18c1.361,0,2.85,0.06,4.451,0.18
					c1.602,0.119,3.09,0.301,4.463,0.552c0.24,1.356,0.402,2.7,0.486,4.02c0.064,1.331,0.113,2.675,0.113,4.043
					c0,1.295-0.049,2.615-0.113,3.982c-0.084,1.368-0.246,2.724-0.486,4.091c-1.373,0.241-2.85,0.408-4.393,0.48
					c-1.57,0.085-3.033,0.132-4.4,0.132c-1.291,0-2.736-0.047-4.344-0.132C218.018,87.96,216.529,87.793,215.168,87.552z"/>
			</g>
		</g>
		<g>
			<g>
				<path fill="#FFFFFF" d="M71.328,87.547c-0.486-2.724-0.719-5.416-0.719-8.068c0-2.573,0.232-5.261,0.719-8.068
					c1.367-0.245,2.838-0.432,4.404-0.551c1.559-0.12,2.992-0.181,4.275-0.181c1.369,0,2.85,0.061,4.451,0.181
					c1.607,0.119,3.096,0.306,4.463,0.551c0.254,1.362,0.408,2.7,0.486,4.031c0.078,1.325,0.119,2.676,0.119,4.037
					c0,1.284-0.041,2.609-0.119,3.977c-0.078,1.368-0.232,2.725-0.486,4.092c-1.367,0.24-2.836,0.401-4.385,0.485
					c-1.578,0.078-3.033,0.12-4.414,0.12c-1.277,0-2.736-0.042-4.332-0.12C74.186,87.948,72.695,87.787,71.328,87.547z"/>
			</g>
		</g>
		<g>
			<g>
				<path fill="#FFFFFF" d="M71.328,61.776c-0.486-2.734-0.719-5.422-0.719-8.074c0-2.578,0.232-5.266,0.719-8.073
					c1.367-0.24,2.838-0.425,4.404-0.539c1.559-0.127,2.992-0.181,4.275-0.181c1.369,0,2.85,0.054,4.451,0.181
					c1.607,0.114,3.096,0.299,4.463,0.539c0.254,1.367,0.408,2.711,0.486,4.037c0.078,1.325,0.119,2.669,0.119,4.036
					c0,1.285-0.041,2.604-0.119,3.972c-0.078,1.368-0.232,2.734-0.486,4.103c-1.367,0.234-2.836,0.403-4.385,0.479
					c-1.578,0.085-3.033,0.121-4.414,0.121c-1.277,0-2.736-0.036-4.332-0.121C74.186,62.18,72.695,62.011,71.328,61.776z"/>
			</g>
		</g>
		<g>
			<g>
				<path fill="#FFFFFF" d="M95.521,61.776c-0.475-2.734-0.715-5.422-0.715-8.074c0-2.578,0.24-5.266,0.715-8.073
					c1.367-0.24,2.838-0.425,4.402-0.539c1.559-0.127,2.986-0.181,4.277-0.181c1.361,0,2.85,0.054,4.457,0.181
					c1.607,0.114,3.096,0.299,4.463,0.539c0.234,1.367,0.396,2.711,0.479,4.037c0.066,1.325,0.121,2.669,0.121,4.036
					c0,1.285-0.055,2.604-0.121,3.972c-0.082,1.368-0.244,2.734-0.479,4.103c-1.367,0.234-2.844,0.403-4.396,0.479
					c-1.561,0.085-3.043,0.121-4.402,0.121c-1.285,0-2.736-0.036-4.338-0.121C98.371,62.18,96.889,62.011,95.521,61.776z"/>
			</g>
		</g>
		<g>
			<g>
				<path fill="#FFFFFF" d="M143.281,61.776c-0.486-2.734-0.732-5.422-0.732-8.074c0-2.578,0.246-5.266,0.732-8.073
					c1.361-0.24,2.824-0.425,4.396-0.539c1.561-0.127,2.994-0.181,4.277-0.181c1.361,0,2.838,0.054,4.445,0.181
					c1.607,0.114,3.102,0.299,4.469,0.539c0.246,1.367,0.402,2.711,0.479,4.037c0.072,1.325,0.121,2.669,0.121,4.036
					c0,1.285-0.049,2.604-0.121,3.972c-0.076,1.368-0.232,2.734-0.479,4.103c-1.367,0.234-2.832,0.403-4.402,0.479
					c-1.561,0.085-3.023,0.121-4.398,0.121c-1.283,0-2.734-0.036-4.33-0.121C146.119,62.18,144.643,62.011,143.281,61.776z"/>
			</g>
		</g>
		<g>
			<g>
				<path fill="#FFFFFF" d="M167.48,61.776c-0.486-2.734-0.732-5.422-0.732-8.074c0-2.578,0.246-5.266,0.732-8.073
					c1.35-0.24,2.824-0.425,4.383-0.539c1.561-0.127,3-0.181,4.285-0.181c1.355,0,2.842,0.054,4.449,0.181
					c1.607,0.114,3.102,0.299,4.463,0.539c0.24,1.367,0.402,2.711,0.48,4.037c0.072,1.325,0.119,2.669,0.119,4.036
					c0,1.285-0.047,2.604-0.119,3.972c-0.078,1.368-0.24,2.734-0.48,4.103c-1.361,0.234-2.836,0.403-4.396,0.479
					c-1.559,0.085-3.029,0.121-4.402,0.121c-1.285,0-2.736-0.036-4.332-0.121C170.311,62.18,168.83,62.011,167.48,61.776z"/>
			</g>
		</g>
		<g>
			<g>
				<path fill="#FFFFFF" d="M167.48,87.547c-0.486-2.724-0.732-5.416-0.732-8.062c0-2.573,0.246-5.267,0.732-8.074
					c1.35-0.245,2.824-0.432,4.383-0.551c1.561-0.115,3-0.169,4.285-0.169c1.355,0,2.842,0.054,4.449,0.169
					c1.607,0.119,3.102,0.306,4.463,0.551c0.24,1.368,0.402,2.7,0.48,4.031c0.072,1.331,0.119,2.676,0.119,4.043
					c0,1.283-0.047,2.604-0.119,3.971c-0.078,1.368-0.24,2.725-0.48,4.092c-1.361,0.24-2.836,0.401-4.396,0.491
					c-1.559,0.079-3.029,0.114-4.402,0.114c-1.285,0-2.736-0.035-4.332-0.114C170.311,87.948,168.83,87.787,167.48,87.547z"/>
			</g>
		</g>
		<g>
			<g>
				<path fill="#FFFFFF" d="M191.666,87.547c-0.492-2.724-0.732-5.416-0.732-8.062c0-2.573,0.24-5.267,0.732-8.074
					c1.361-0.245,2.824-0.432,4.396-0.551c1.566-0.115,2.98-0.169,4.271-0.169c1.361,0,2.85,0.054,4.455,0.169
					c1.609,0.119,3.09,0.306,4.465,0.551c0.244,1.368,0.395,2.7,0.484,4.031c0.066,1.331,0.119,2.676,0.119,4.043
					c0,1.283-0.053,2.604-0.119,3.971c-0.09,1.368-0.24,2.725-0.484,4.092c-1.375,0.24-2.838,0.401-4.396,0.491
					c-1.566,0.079-3.037,0.114-4.404,0.114c-1.277,0-2.736-0.035-4.324-0.114C194.508,87.948,193.027,87.787,191.666,87.547z"/>
			</g>
		</g>
		<g>
			<g>
				<path fill="#FFFFFF" d="M167.48,113.328c-0.486-2.724-0.732-5.423-0.732-8.068c0-2.573,0.246-5.261,0.732-8.067
					c1.35-0.252,2.824-0.426,4.383-0.552c1.561-0.115,3-0.18,4.285-0.18c1.355,0,2.842,0.064,4.449,0.18
					c1.607,0.126,3.102,0.3,4.463,0.552c0.24,1.355,0.402,2.704,0.48,4.024c0.072,1.332,0.119,2.676,0.119,4.043
					c0,1.29-0.047,2.61-0.119,3.978c-0.078,1.367-0.24,2.723-0.48,4.091c-1.361,0.239-2.836,0.408-4.396,0.485
					c-1.559,0.078-3.029,0.127-4.402,0.127c-1.285,0-2.736-0.049-4.332-0.127C170.311,113.736,168.83,113.567,167.48,113.328z"/>
			</g>
		</g>
		<g>
			<g>
				<path fill="#FFFFFF" d="M71.328,190.666c-0.486-2.722-0.719-5.421-0.719-8.073c0-2.567,0.232-5.254,0.719-8.062
					c1.367-0.252,2.838-0.433,4.404-0.553c1.559-0.119,2.992-0.18,4.275-0.18c1.369,0,2.85,0.061,4.451,0.18
					c1.607,0.12,3.096,0.301,4.463,0.553c0.254,1.355,0.408,2.7,0.486,4.02c0.078,1.331,0.119,2.675,0.119,4.042
					c0,1.296-0.041,2.615-0.119,3.983s-0.232,2.723-0.486,4.09c-1.367,0.241-2.836,0.408-4.385,0.48
					c-1.578,0.085-3.033,0.132-4.414,0.132c-1.277,0-2.736-0.047-4.332-0.132C74.186,191.074,72.695,190.907,71.328,190.666z"/>
			</g>
		</g>
		<g>
			<g>
				<path fill="#FFFFFF" d="M167.48,190.666c-0.486-2.722-0.732-5.421-0.732-8.073c0-2.567,0.246-5.254,0.732-8.062
					c1.35-0.252,2.824-0.433,4.383-0.553c1.561-0.119,3-0.18,4.285-0.18c1.355,0,2.842,0.061,4.449,0.18
					c1.607,0.12,3.102,0.301,4.463,0.553c0.24,1.355,0.402,2.7,0.48,4.02c0.072,1.331,0.119,2.675,0.119,4.042
					c0,1.296-0.047,2.615-0.119,3.983c-0.078,1.368-0.24,2.723-0.48,4.09c-1.361,0.241-2.836,0.408-4.396,0.48
					c-1.559,0.085-3.029,0.132-4.402,0.132c-1.285,0-2.736-0.047-4.332-0.132C170.311,191.074,168.83,190.907,167.48,190.666z"/>
			</g>
		</g>
		<g>
			<g>
				<path fill="#FFFFFF" d="M191.666,113.328c-0.492-2.724-0.732-5.423-0.732-8.068c0-2.573,0.24-5.261,0.732-8.067
					c1.361-0.252,2.824-0.426,4.396-0.552c1.566-0.115,2.98-0.18,4.271-0.18c1.361,0,2.85,0.064,4.455,0.18
					c1.609,0.126,3.09,0.3,4.465,0.552c0.244,1.355,0.395,2.704,0.484,4.024c0.066,1.332,0.119,2.676,0.119,4.043
					c0,1.29-0.053,2.61-0.119,3.978c-0.09,1.367-0.24,2.723-0.484,4.091c-1.375,0.239-2.838,0.408-4.396,0.485
					c-1.566,0.078-3.037,0.127-4.404,0.127c-1.277,0-2.736-0.049-4.324-0.127C194.508,113.736,193.027,113.567,191.666,113.328z"/>
			</g>
		</g>
		<g>
			<g>
				<path fill="#FFFFFF" d="M47.354,87.547c-0.48-2.724-0.732-5.416-0.732-8.068c0-2.573,0.252-5.261,0.732-8.068
					c1.361-0.245,2.832-0.432,4.402-0.551c1.559-0.12,2.98-0.181,4.277-0.181c1.361,0,2.848,0.061,4.451,0.181
					c1.602,0.119,3.09,0.306,4.461,0.551c0.24,1.362,0.402,2.7,0.488,4.031c0.064,1.325,0.113,2.676,0.113,4.037
					c0,1.284-0.049,2.609-0.113,3.977c-0.086,1.368-0.248,2.725-0.488,4.092c-1.371,0.24-2.848,0.401-4.391,0.485
					c-1.57,0.078-3.035,0.12-4.402,0.12c-1.289,0-2.734-0.042-4.344-0.12C50.201,87.948,48.715,87.787,47.354,87.547z"/>
			</g>
		</g>
	</g>
</g>
</svg>
