<?xml version="1.0" encoding="utf-8"?>
<!-- Generator: Adobe Illustrator 14.0.0, SVG Export Plug-In . SVG Version: 6.00 Build 43363)  -->
<!DOCTYPE svg PUBLIC "-//W3C//DTD SVG 1.1//EN" "http://www.w3.org/Graphics/SVG/1.1/DTD/svg11.dtd">
<svg version="1.1" id="Ebene_1" xmlns="http://www.w3.org/2000/svg" xmlns:xlink="http://www.w3.org/1999/xlink" x="0px" y="0px"
	 width="64px" height="64px" viewBox="0 0 64 64" enable-background="new 0 0 64 64" xml:space="preserve">
<g>
	<linearGradient id="SVGID_1_" gradientUnits="userSpaceOnUse" x1="32.0005" y1="64" x2="32.0005" y2="6.394885e-14">
		<stop  offset="0" style="stop-color:#D45707"/>
		<stop  offset="1" style="stop-color:#F28F00"/>
	</linearGradient>
	<path fill-rule="evenodd" clip-rule="evenodd" fill="url(#SVGID_1_)" d="M5,0h54c2.764,0,5,2.236,5,5v54c0,2.764-2.236,5-5,5H5
		c-2.764,0-5-2.236-5-5V5C0,2.236,2.236,0,5,0z"/>
	<g>
		<g>
			<g>
				<path fill="#FFFFFF" d="M29.878,47.669c-0.121-0.685-0.179-1.356-0.179-2.022c0-0.641,0.058-1.315,0.179-2.013
					c0.341-0.062,0.707-0.108,1.101-0.138c0.386-0.029,0.748-0.042,1.068-0.042c0.342,0,0.714,0.013,1.114,0.042
					c0.401,0.03,0.771,0.076,1.115,0.138c0.06,0.337,0.099,0.675,0.119,1.008c0.024,0.332,0.027,0.666,0.027,1.005
					c0,0.324-0.003,0.651-0.027,0.995c-0.021,0.343-0.06,0.687-0.119,1.028c-0.343,0.062-0.708,0.097-1.1,0.121
					c-0.392,0.017-0.756,0.029-1.098,0.029c-0.319,0-0.688-0.012-1.087-0.029C30.589,47.766,30.219,47.73,29.878,47.669z"/>
			</g>
		</g>
		<g>
			<g>
				<path fill="#FFFFFF" d="M29.878,41.224c-0.121-0.683-0.179-1.358-0.179-2.021c0-0.643,0.058-1.313,0.179-2.018
					c0.341-0.062,0.707-0.107,1.101-0.137c0.386-0.03,0.748-0.042,1.068-0.042c0.342,0,0.714,0.012,1.114,0.042
					c0.401,0.03,0.771,0.076,1.115,0.137c0.06,0.341,0.099,0.675,0.119,1.011c0.024,0.329,0.027,0.663,0.027,1.007
					c0,0.321-0.003,0.654-0.027,0.997c-0.021,0.34-0.06,0.682-0.119,1.023c-0.343,0.059-0.708,0.1-1.1,0.119
					c-0.392,0.019-0.756,0.031-1.098,0.031c-0.319,0-0.688-0.013-1.087-0.031C30.589,41.324,30.219,41.283,29.878,41.224z"/>
			</g>
		</g>
		<g>
			<g>
				<path fill="#FFFFFF" d="M29.878,34.776c-0.121-0.681-0.179-1.354-0.179-2.015c0-0.646,0.058-1.314,0.179-2.023
					c0.341-0.059,0.707-0.101,1.101-0.13c0.386-0.03,0.748-0.048,1.068-0.048c0.342,0,0.714,0.018,1.114,0.048
					c0.401,0.03,0.771,0.071,1.115,0.13c0.06,0.342,0.099,0.683,0.119,1.014c0.024,0.327,0.027,0.667,0.027,1.009
					c0,0.317-0.003,0.649-0.027,0.991c-0.021,0.344-0.06,0.683-0.119,1.024c-0.343,0.06-0.708,0.102-1.1,0.119
					c-0.392,0.025-0.756,0.03-1.098,0.03c-0.319,0-0.688-0.004-1.087-0.03C30.589,34.878,30.219,34.836,29.878,34.776z"/>
			</g>
		</g>
		<g>
			<g>
				<path fill="#FFFFFF" d="M29.878,28.33c-0.121-0.68-0.179-1.352-0.179-2.014c0-0.644,0.058-1.315,0.179-2.019
					c0.341-0.062,0.707-0.104,1.101-0.136c0.386-0.028,0.748-0.048,1.068-0.048c0.342,0,0.714,0.02,1.114,0.048
					c0.401,0.031,0.771,0.073,1.115,0.136c0.06,0.343,0.099,0.678,0.119,1.005c0.024,0.337,0.027,0.672,0.027,1.013
					c0,0.325-0.003,0.652-0.027,0.993c-0.021,0.341-0.06,0.679-0.119,1.021c-0.343,0.062-0.708,0.104-1.1,0.124
					c-0.392,0.02-0.756,0.031-1.098,0.031c-0.319,0-0.688-0.011-1.087-0.031C30.589,28.434,30.219,28.391,29.878,28.33z"/>
			</g>
		</g>
		<g>
			<g>
				<path fill="#FFFFFF" d="M35.872,41.224c-0.119-0.683-0.18-1.358-0.18-2.021c0-0.643,0.061-1.313,0.18-2.018
					c0.344-0.062,0.707-0.107,1.099-0.137c0.389-0.03,0.748-0.042,1.069-0.042c0.343,0,0.716,0.012,1.117,0.042
					c0.401,0.03,0.771,0.076,1.117,0.137c0.062,0.341,0.095,0.675,0.118,1.011c0.017,0.329,0.027,0.663,0.027,1.007
					c0,0.321-0.011,0.654-0.027,0.997c-0.022,0.34-0.056,0.682-0.118,1.023c-0.347,0.059-0.712,0.1-1.102,0.119
					c-0.391,0.019-0.761,0.031-1.099,0.031c-0.322,0-0.684-0.013-1.089-0.031C36.585,41.324,36.216,41.283,35.872,41.224z"/>
			</g>
		</g>
		<g>
			<g>
				<path fill="#FFFFFF" d="M35.872,34.776c-0.119-0.681-0.18-1.354-0.18-2.015c0-0.646,0.061-1.314,0.18-2.023
					c0.344-0.059,0.707-0.101,1.099-0.13c0.389-0.03,0.748-0.048,1.069-0.048c0.343,0,0.716,0.018,1.117,0.048
					c0.401,0.03,0.771,0.071,1.117,0.13c0.062,0.342,0.095,0.683,0.118,1.014c0.017,0.327,0.027,0.667,0.027,1.009
					c0,0.317-0.011,0.649-0.027,0.991c-0.022,0.344-0.056,0.683-0.118,1.024c-0.347,0.06-0.712,0.102-1.102,0.119
					c-0.391,0.025-0.761,0.03-1.099,0.03c-0.322,0-0.684-0.004-1.089-0.03C36.585,34.878,36.216,34.836,35.872,34.776z"/>
			</g>
		</g>
		<g>
			<g>
				<path fill="#FFFFFF" d="M35.872,28.33c-0.119-0.68-0.18-1.352-0.18-2.014c0-0.644,0.061-1.315,0.18-2.019
					c0.344-0.062,0.707-0.104,1.099-0.136c0.389-0.028,0.748-0.048,1.069-0.048c0.343,0,0.716,0.02,1.117,0.048
					c0.401,0.031,0.771,0.073,1.117,0.136c0.062,0.343,0.095,0.678,0.118,1.005c0.017,0.337,0.027,0.672,0.027,1.013
					c0,0.325-0.011,0.652-0.027,0.993c-0.022,0.341-0.056,0.679-0.118,1.021c-0.347,0.062-0.712,0.104-1.102,0.124
					c-0.391,0.02-0.761,0.031-1.099,0.031c-0.322,0-0.684-0.011-1.089-0.031C36.585,28.434,36.216,28.391,35.872,28.33z"/>
			</g>
		</g>
		<g>
			<g>
				<path fill="#FFFFFF" d="M23.881,41.224c-0.117-0.683-0.178-1.358-0.178-2.021c0-0.643,0.061-1.313,0.178-2.018
					c0.344-0.062,0.708-0.107,1.102-0.137c0.389-0.03,0.748-0.042,1.064-0.042c0.343,0,0.718,0.012,1.12,0.042
					c0.401,0.03,0.771,0.076,1.114,0.137c0.056,0.341,0.1,0.675,0.117,1.011c0.023,0.329,0.03,0.663,0.03,1.007
					c0,0.321-0.007,0.654-0.03,0.997c-0.017,0.34-0.061,0.682-0.117,1.023c-0.343,0.059-0.711,0.1-1.1,0.119
					c-0.389,0.019-0.76,0.031-1.102,0.031c-0.318,0-0.684-0.013-1.083-0.031C24.594,41.324,24.225,41.283,23.881,41.224z"/>
			</g>
		</g>
		<g>
			<g>
				<path fill="#FFFFFF" d="M23.881,34.776c-0.117-0.681-0.178-1.354-0.178-2.015c0-0.646,0.061-1.314,0.178-2.023
					c0.344-0.059,0.708-0.101,1.102-0.13c0.389-0.03,0.748-0.048,1.064-0.048c0.343,0,0.718,0.018,1.12,0.048
					c0.401,0.03,0.771,0.071,1.114,0.13c0.056,0.342,0.1,0.683,0.117,1.014c0.023,0.327,0.03,0.667,0.03,1.009
					c0,0.317-0.007,0.649-0.03,0.991c-0.017,0.344-0.061,0.683-0.117,1.024c-0.343,0.06-0.711,0.102-1.1,0.119
					c-0.389,0.025-0.76,0.03-1.102,0.03c-0.318,0-0.684-0.004-1.083-0.03C24.594,34.878,24.225,34.836,23.881,34.776z"/>
			</g>
		</g>
		<g>
			<g>
				<path fill="#FFFFFF" d="M35.872,47.669c-0.119-0.685-0.18-1.358-0.18-2.022c0-0.639,0.061-1.313,0.18-2.016
					c0.344-0.06,0.707-0.107,1.099-0.137c0.389-0.03,0.748-0.041,1.069-0.041c0.343,0,0.716,0.011,1.117,0.041
					c0.401,0.03,0.771,0.078,1.117,0.137c0.062,0.341,0.095,0.676,0.118,1.01c0.017,0.33,0.027,0.664,0.027,1.005
					c0,0.323-0.011,0.65-0.027,0.995c-0.022,0.343-0.056,0.687-0.118,1.028c-0.347,0.06-0.712,0.097-1.102,0.119
					c-0.391,0.019-0.761,0.03-1.099,0.03c-0.322,0-0.684-0.011-1.089-0.03C36.585,47.766,36.216,47.729,35.872,47.669z"/>
			</g>
		</g>
		<g>
			<g>
				<path fill="#FFFFFF" d="M23.881,47.669c-0.117-0.685-0.178-1.358-0.178-2.022c0-0.639,0.061-1.313,0.178-2.016
					c0.344-0.06,0.708-0.107,1.102-0.137c0.389-0.03,0.748-0.041,1.064-0.041c0.343,0,0.718,0.011,1.12,0.041
					c0.401,0.03,0.771,0.078,1.114,0.137c0.056,0.341,0.1,0.676,0.117,1.01c0.023,0.33,0.03,0.664,0.03,1.005
					c0,0.323-0.007,0.65-0.03,0.995c-0.017,0.343-0.061,0.687-0.117,1.028c-0.343,0.06-0.711,0.097-1.1,0.119
					c-0.389,0.019-0.76,0.03-1.102,0.03c-0.318,0-0.684-0.011-1.083-0.03C24.594,47.766,24.225,47.729,23.881,47.669z"/>
			</g>
		</g>
		<g>
			<g>
				<path fill="#FFFFFF" d="M29.878,54.042c-0.121-0.684-0.179-1.358-0.179-2.022c0-0.643,0.058-1.316,0.179-2.016
					c0.341-0.06,0.707-0.108,1.101-0.137c0.386-0.03,0.748-0.042,1.068-0.042c0.342,0,0.714,0.012,1.114,0.042
					c0.401,0.029,0.771,0.078,1.115,0.137c0.06,0.337,0.099,0.675,0.119,1.009c0.024,0.331,0.027,0.665,0.027,1.007
					c0,0.322-0.003,0.651-0.027,0.996c-0.021,0.343-0.06,0.685-0.119,1.026c-0.343,0.059-0.708,0.099-1.1,0.119
					c-0.392,0.019-0.756,0.03-1.098,0.03c-0.319,0-0.688-0.011-1.087-0.03C30.589,54.141,30.219,54.102,29.878,54.042z"/>
			</g>
		</g>
		<g>
			<g>
				<path fill="#FFFFFF" d="M35.872,54.042c-0.119-0.684-0.18-1.358-0.18-2.022c0-0.639,0.061-1.314,0.18-2.016
					c0.344-0.06,0.707-0.108,1.099-0.137c0.389-0.03,0.748-0.042,1.069-0.042c0.343,0,0.716,0.012,1.117,0.042
					c0.401,0.029,0.771,0.078,1.117,0.137c0.062,0.341,0.095,0.675,0.118,1.012c0.017,0.328,0.027,0.662,0.027,1.004
					c0,0.322-0.011,0.651-0.027,0.996c-0.022,0.343-0.056,0.685-0.118,1.026c-0.347,0.059-0.712,0.099-1.102,0.119
					c-0.391,0.019-0.761,0.03-1.099,0.03c-0.322,0-0.684-0.011-1.089-0.03C36.585,54.141,36.216,54.102,35.872,54.042z"/>
			</g>
		</g>
		<g>
			<g>
				<path fill="#FFFFFF" d="M23.881,54.042c-0.117-0.684-0.178-1.358-0.178-2.022c0-0.639,0.061-1.314,0.178-2.016
					c0.344-0.06,0.708-0.108,1.102-0.137c0.389-0.03,0.748-0.042,1.064-0.042c0.343,0,0.718,0.012,1.12,0.042
					c0.401,0.029,0.771,0.078,1.114,0.137c0.056,0.341,0.1,0.675,0.117,1.012c0.023,0.328,0.03,0.662,0.03,1.004
					c0,0.322-0.007,0.651-0.03,0.996c-0.017,0.343-0.061,0.685-0.117,1.026c-0.343,0.059-0.711,0.099-1.1,0.119
					c-0.389,0.019-0.76,0.03-1.102,0.03c-0.318,0-0.684-0.011-1.083-0.03C24.594,54.141,24.225,54.102,23.881,54.042z"/>
			</g>
		</g>
		<g>
			<g>
				<path fill="#FFFFFF" d="M23.881,28.33c-0.117-0.68-0.178-1.352-0.178-2.014c0-0.644,0.061-1.315,0.178-2.019
					c0.344-0.062,0.708-0.104,1.102-0.136c0.389-0.028,0.748-0.048,1.064-0.048c0.343,0,0.718,0.02,1.12,0.048
					c0.401,0.031,0.771,0.073,1.114,0.136c0.056,0.343,0.1,0.678,0.117,1.005c0.023,0.337,0.03,0.672,0.03,1.013
					c0,0.325-0.007,0.652-0.03,0.993c-0.017,0.341-0.061,0.679-0.117,1.021c-0.343,0.062-0.711,0.104-1.1,0.124
					c-0.389,0.02-0.76,0.031-1.102,0.031c-0.318,0-0.684-0.011-1.083-0.031C24.594,28.434,24.225,28.391,23.881,28.33z"/>
			</g>
		</g>
		<g>
			<g>
				<path fill="#FFFFFF" d="M17.83,28.33c-0.121-0.68-0.178-1.352-0.178-2.014c0-0.644,0.057-1.315,0.178-2.019
					c0.342-0.062,0.714-0.104,1.103-0.136c0.393-0.028,0.748-0.048,1.07-0.048c0.342,0,0.711,0.02,1.11,0.048
					c0.403,0.031,0.778,0.073,1.12,0.136c0.064,0.343,0.097,0.678,0.121,1.005c0.017,0.337,0.029,0.672,0.029,1.013
					c0,0.325-0.012,0.652-0.029,0.993c-0.024,0.341-0.057,0.679-0.121,1.021c-0.342,0.062-0.713,0.104-1.097,0.124
					c-0.398,0.02-0.76,0.031-1.105,0.031c-0.321,0-0.684-0.011-1.081-0.031C18.547,28.434,18.172,28.391,17.83,28.33z"/>
			</g>
		</g>
		<g>
			<g>
				<path fill="#FFFFFF" d="M11.837,28.33c-0.119-0.68-0.182-1.352-0.182-2.014c0-0.644,0.063-1.315,0.182-2.019
					c0.339-0.062,0.709-0.104,1.102-0.136c0.389-0.028,0.744-0.048,1.071-0.048c0.339,0,0.71,0.02,1.11,0.048
					c0.399,0.031,0.771,0.073,1.114,0.136c0.062,0.343,0.101,0.678,0.125,1.005c0.015,0.337,0.03,0.672,0.03,1.013
					c0,0.325-0.015,0.652-0.03,0.993c-0.024,0.341-0.062,0.679-0.125,1.021c-0.343,0.062-0.711,0.104-1.094,0.124
					c-0.396,0.02-0.76,0.031-1.101,0.031c-0.324,0-0.683-0.011-1.086-0.031C12.548,28.434,12.177,28.391,11.837,28.33z"/>
			</g>
		</g>
		<g>
			<g>
				<path fill="#FFFFFF" d="M5.843,28.33c-0.119-0.68-0.182-1.352-0.182-2.014c0-0.644,0.063-1.315,0.182-2.019
					c0.339-0.062,0.705-0.104,1.102-0.136c0.387-0.028,0.745-0.048,1.071-0.048c0.339,0,0.711,0.02,1.11,0.048
					c0.399,0.031,0.771,0.073,1.114,0.136c0.06,0.343,0.102,0.678,0.121,1.005c0.02,0.337,0.031,0.672,0.031,1.013
					c0,0.325-0.011,0.652-0.031,0.993c-0.019,0.341-0.061,0.679-0.121,1.021c-0.343,0.062-0.711,0.104-1.099,0.124
					c-0.39,0.02-0.754,0.031-1.096,0.031c-0.324,0-0.686-0.011-1.09-0.031C6.554,28.434,6.182,28.391,5.843,28.33z"/>
			</g>
		</g>
		<g>
			<g>
				<path fill="#FFFFFF" d="M53.788,28.33c-0.12-0.68-0.183-1.352-0.183-2.014c0-0.644,0.062-1.315,0.183-2.019
					c0.346-0.062,0.712-0.104,1.108-0.136c0.385-0.028,0.744-0.048,1.07-0.048c0.333,0,0.705,0.02,1.11,0.048
					c0.393,0.031,0.767,0.073,1.114,0.136c0.06,0.343,0.096,0.678,0.121,1.005c0.02,0.337,0.031,0.672,0.031,1.013
					c0,0.325-0.012,0.652-0.031,0.993c-0.025,0.341-0.062,0.679-0.121,1.021c-0.348,0.062-0.719,0.104-1.098,0.124
					c-0.392,0.02-0.756,0.031-1.104,0.031c-0.324,0-0.684-0.011-1.084-0.031S54.134,28.391,53.788,28.33z"/>
			</g>
		</g>
		<g>
			<g>
				<path fill="#FFFFFF" d="M5.843,21.891c-0.119-0.686-0.182-1.357-0.182-2.022c0-0.639,0.063-1.314,0.182-2.012
					c0.339-0.063,0.705-0.111,1.102-0.141c0.387-0.03,0.745-0.043,1.071-0.043c0.339,0,0.711,0.014,1.11,0.043
					c0.399,0.03,0.771,0.078,1.114,0.141c0.06,0.338,0.102,0.672,0.121,1.003c0.02,0.333,0.031,0.667,0.031,1.009
					c0,0.326-0.011,0.653-0.031,0.995c-0.019,0.342-0.061,0.684-0.121,1.027c-0.343,0.06-0.711,0.097-1.099,0.119
					c-0.39,0.019-0.754,0.033-1.096,0.033c-0.324,0-0.686-0.014-1.09-0.033C6.554,21.988,6.182,21.951,5.843,21.891z"/>
			</g>
		</g>
		<g>
			<g>
				<path fill="#FFFFFF" d="M53.788,21.891c-0.12-0.686-0.183-1.357-0.183-2.022c0-0.639,0.062-1.314,0.183-2.012
					c0.346-0.063,0.712-0.111,1.108-0.141c0.385-0.03,0.744-0.043,1.07-0.043c0.333,0,0.705,0.014,1.11,0.043
					c0.393,0.03,0.767,0.078,1.114,0.141c0.06,0.338,0.096,0.672,0.121,1.003c0.02,0.333,0.031,0.667,0.031,1.009
					c0,0.326-0.012,0.653-0.031,0.995c-0.025,0.342-0.062,0.684-0.121,1.027c-0.348,0.06-0.719,0.097-1.098,0.119
					c-0.392,0.019-0.756,0.033-1.104,0.033c-0.324,0-0.684-0.014-1.084-0.033C54.506,21.988,54.134,21.951,53.788,21.891z"/>
			</g>
		</g>
		<g>
			<g>
				<path fill="#FFFFFF" d="M17.83,21.889c-0.121-0.686-0.178-1.356-0.178-2.021c0-0.641,0.057-1.316,0.178-2.014
					c0.342-0.061,0.714-0.111,1.103-0.141c0.393-0.03,0.748-0.042,1.07-0.042c0.342,0,0.711,0.012,1.11,0.042
					c0.403,0.03,0.778,0.08,1.12,0.141c0.064,0.34,0.097,0.672,0.121,1.005c0.017,0.333,0.029,0.669,0.029,1.009
					c0,0.323-0.012,0.651-0.029,0.993c-0.024,0.342-0.057,0.686-0.121,1.028c-0.342,0.06-0.713,0.095-1.097,0.121
					c-0.398,0.017-0.76,0.03-1.105,0.03c-0.321,0-0.684-0.013-1.081-0.03C18.547,21.984,18.172,21.949,17.83,21.889z"/>
			</g>
		</g>
		<g>
			<g>
				<path fill="#FFFFFF" d="M17.83,15.445c-0.121-0.683-0.178-1.358-0.178-2.022c0-0.642,0.057-1.313,0.178-2.016
					c0.342-0.059,0.714-0.108,1.103-0.137c0.393-0.032,0.748-0.042,1.07-0.042c0.342,0,0.711,0.01,1.11,0.042
					c0.403,0.028,0.778,0.078,1.12,0.137c0.064,0.342,0.097,0.676,0.121,1.012c0.017,0.329,0.029,0.663,0.029,1.004
					c0,0.323-0.012,0.655-0.029,0.998c-0.024,0.342-0.057,0.683-0.121,1.024c-0.342,0.058-0.713,0.102-1.097,0.119
					c-0.398,0.019-0.76,0.03-1.105,0.03c-0.321,0-0.684-0.011-1.081-0.03C18.547,15.547,18.172,15.503,17.83,15.445z"/>
			</g>
		</g>
		<g>
			<g>
				<path fill="#FFFFFF" d="M23.881,15.445c-0.117-0.683-0.178-1.358-0.178-2.022c0-0.642,0.061-1.313,0.178-2.016
					c0.342-0.059,0.708-0.108,1.102-0.137c0.386-0.032,0.746-0.042,1.064-0.042c0.343,0,0.718,0.01,1.119,0.042
					c0.401,0.028,0.772,0.078,1.114,0.137c0.058,0.342,0.1,0.676,0.118,1.012c0.021,0.329,0.03,0.663,0.03,1.004
					c0,0.323-0.01,0.655-0.03,0.998c-0.018,0.342-0.061,0.683-0.118,1.024c-0.341,0.058-0.709,0.102-1.101,0.119
					c-0.387,0.019-0.758,0.03-1.101,0.03c-0.317,0-0.684-0.011-1.083-0.03C24.593,15.547,24.223,15.503,23.881,15.445z"/>
			</g>
		</g>
		<g>
			<g>
				<path fill="#FFFFFF" d="M35.822,15.445c-0.121-0.683-0.183-1.358-0.183-2.022c0-0.642,0.062-1.313,0.183-2.016
					c0.338-0.059,0.705-0.108,1.098-0.137c0.389-0.032,0.748-0.042,1.066-0.042c0.343,0,0.714,0.01,1.111,0.042
					c0.405,0.028,0.779,0.078,1.121,0.137c0.063,0.342,0.101,0.676,0.123,1.012c0.011,0.329,0.025,0.663,0.025,1.004
					c0,0.323-0.014,0.655-0.025,0.998c-0.021,0.342-0.059,0.683-0.123,1.024c-0.342,0.058-0.707,0.102-1.104,0.119
					c-0.39,0.019-0.755,0.03-1.097,0.03c-0.319,0-0.684-0.011-1.083-0.03C36.531,15.547,36.16,15.503,35.822,15.445z"/>
			</g>
		</g>
		<g>
			<g>
				<path fill="#FFFFFF" d="M41.869,15.445c-0.121-0.683-0.182-1.358-0.182-2.022c0-0.642,0.062-1.313,0.182-2.016
					c0.343-0.059,0.71-0.108,1.1-0.137c0.383-0.032,0.75-0.042,1.062-0.042c0.345,0,0.716,0.01,1.123,0.042
					c0.395,0.028,0.768,0.078,1.114,0.137c0.06,0.342,0.095,0.676,0.118,1.012c0.02,0.329,0.023,0.663,0.023,1.004
					c0,0.323-0.004,0.655-0.023,0.998c-0.023,0.342-0.059,0.683-0.118,1.024c-0.347,0.058-0.714,0.102-1.106,0.119
					c-0.381,0.019-0.756,0.03-1.096,0.03c-0.323,0-0.684-0.011-1.088-0.03C42.581,15.547,42.212,15.503,41.869,15.445z"/>
			</g>
		</g>
		<g>
			<g>
				<path fill="#FFFFFF" d="M41.869,21.889c-0.121-0.686-0.182-1.356-0.182-2.019c0-0.64,0.062-1.317,0.182-2.016
					c0.343-0.061,0.71-0.111,1.1-0.141c0.383-0.028,0.75-0.042,1.062-0.042c0.345,0,0.716,0.014,1.123,0.042
					c0.395,0.03,0.768,0.08,1.114,0.141c0.06,0.342,0.095,0.672,0.118,1.005c0.02,0.335,0.023,0.669,0.023,1.011
					c0,0.323-0.004,0.65-0.023,0.991c-0.023,0.342-0.059,0.686-0.118,1.028c-0.347,0.06-0.714,0.095-1.106,0.123
					c-0.381,0.017-0.756,0.028-1.096,0.028c-0.323,0-0.684-0.011-1.088-0.028C42.581,21.984,42.212,21.949,41.869,21.889z"/>
			</g>
		</g>
		<g>
			<g>
				<path fill="#FFFFFF" d="M47.912,21.889c-0.123-0.686-0.182-1.356-0.182-2.019c0-0.64,0.059-1.317,0.182-2.016
					c0.347-0.061,0.71-0.111,1.107-0.141c0.387-0.028,0.744-0.042,1.068-0.042c0.333,0,0.705,0.014,1.111,0.042
					c0.395,0.03,0.77,0.08,1.114,0.141c0.062,0.342,0.093,0.672,0.12,1.005c0.021,0.335,0.035,0.669,0.035,1.011
					c0,0.323-0.015,0.65-0.035,0.991c-0.027,0.342-0.059,0.686-0.12,1.028c-0.345,0.06-0.714,0.095-1.095,0.123
					c-0.395,0.017-0.76,0.028-1.107,0.028c-0.321,0-0.684-0.011-1.08-0.028C48.627,21.984,48.259,21.949,47.912,21.889z"/>
			</g>
		</g>
		<g>
			<g>
				<path fill="#FFFFFF" d="M41.869,28.33c-0.121-0.68-0.182-1.352-0.182-2.014c0-0.644,0.062-1.315,0.182-2.019
					c0.343-0.062,0.71-0.104,1.1-0.136c0.383-0.028,0.75-0.048,1.062-0.048c0.345,0,0.716,0.02,1.123,0.048
					c0.395,0.031,0.768,0.073,1.114,0.136c0.06,0.343,0.095,0.678,0.118,1.005c0.02,0.337,0.023,0.672,0.023,1.013
					c0,0.325-0.004,0.652-0.023,0.993c-0.023,0.341-0.059,0.679-0.118,1.021c-0.347,0.062-0.714,0.104-1.106,0.124
					c-0.381,0.02-0.756,0.031-1.096,0.031c-0.323,0-0.684-0.011-1.088-0.031C42.581,28.434,42.212,28.391,41.869,28.33z"/>
			</g>
		</g>
		<g>
			<g>
				<path fill="#FFFFFF" d="M17.83,47.669c-0.121-0.685-0.178-1.358-0.178-2.022c0-0.639,0.057-1.313,0.178-2.012
					c0.342-0.063,0.714-0.111,1.103-0.141c0.393-0.03,0.748-0.041,1.07-0.041c0.342,0,0.711,0.011,1.11,0.041
					c0.403,0.03,0.778,0.078,1.12,0.141c0.064,0.337,0.097,0.672,0.121,1.006c0.017,0.33,0.029,0.665,0.029,1.006
					c0,0.327-0.012,0.653-0.029,0.995c-0.024,0.342-0.057,0.686-0.121,1.027c-0.342,0.06-0.713,0.097-1.097,0.119
					c-0.398,0.019-0.76,0.033-1.105,0.033c-0.321,0-0.684-0.014-1.081-0.033C18.547,47.766,18.172,47.729,17.83,47.669z"/>
			</g>
		</g>
		<g>
			<g>
				<path fill="#FFFFFF" d="M41.869,47.669c-0.121-0.685-0.182-1.358-0.182-2.022c0-0.639,0.062-1.313,0.182-2.012
					c0.343-0.063,0.71-0.111,1.1-0.141c0.383-0.03,0.75-0.041,1.062-0.041c0.345,0,0.716,0.011,1.123,0.041
					c0.395,0.03,0.768,0.078,1.114,0.141c0.06,0.337,0.095,0.672,0.118,1.006c0.02,0.33,0.023,0.665,0.023,1.006
					c0,0.327-0.004,0.653-0.023,0.995c-0.023,0.342-0.059,0.686-0.118,1.027c-0.347,0.06-0.714,0.097-1.106,0.119
					c-0.381,0.019-0.756,0.033-1.096,0.033c-0.323,0-0.684-0.014-1.088-0.033C42.581,47.766,42.212,47.729,41.869,47.669z"/>
			</g>
		</g>
		<g>
			<g>
				<path fill="#FFFFFF" d="M47.912,28.33c-0.123-0.68-0.182-1.352-0.182-2.014c0-0.644,0.059-1.315,0.182-2.019
					c0.347-0.062,0.71-0.104,1.107-0.136c0.387-0.028,0.744-0.048,1.068-0.048c0.333,0,0.705,0.02,1.111,0.048
					c0.395,0.031,0.77,0.073,1.114,0.136c0.062,0.343,0.093,0.678,0.12,1.005c0.021,0.337,0.035,0.672,0.035,1.013
					c0,0.325-0.015,0.652-0.035,0.993c-0.027,0.341-0.059,0.679-0.12,1.021c-0.345,0.062-0.714,0.104-1.095,0.124
					c-0.395,0.02-0.76,0.031-1.107,0.031c-0.321,0-0.684-0.011-1.08-0.031C48.627,28.434,48.259,28.391,47.912,28.33z"/>
			</g>
		</g>
		<g>
			<g>
				<path fill="#FFFFFF" d="M11.837,21.889c-0.119-0.686-0.182-1.356-0.182-2.021c0-0.641,0.063-1.316,0.182-2.014
					c0.339-0.061,0.709-0.111,1.102-0.141c0.389-0.03,0.744-0.042,1.071-0.042c0.339,0,0.71,0.012,1.11,0.042
					s0.771,0.08,1.114,0.141c0.062,0.34,0.101,0.672,0.125,1.005c0.015,0.333,0.03,0.669,0.03,1.009c0,0.323-0.015,0.651-0.03,0.993
					c-0.024,0.342-0.062,0.686-0.125,1.028c-0.343,0.06-0.711,0.095-1.094,0.121c-0.396,0.017-0.76,0.03-1.101,0.03
					c-0.324,0-0.683-0.013-1.086-0.03C12.548,21.984,12.177,21.949,11.837,21.889z"/>
			</g>
		</g>
	</g>
</g>
</svg>
